<svg width="40" height="40" viewBox="0 0 26 26" fill="none" xmlns="http://www.w3.org/2000/svg">
<g clip-path="url(#clip0_1_63)">
<path d="M23.4219 14.967L25.4737 5.93922C25.6218 5.2874 25.1263 4.66669 24.4579 4.66669H7.41007L7.01224 2.72182C6.91311 2.23705 6.48655 1.88892 5.99171 1.88892H1.54167C0.966363 1.88892 0.5 2.35528 0.5 2.93058V3.62503C0.5 4.20033 0.966363 4.66669 1.54167 4.66669H4.57478L7.62374 19.5727C6.89431 19.9922 6.40278 20.7788 6.40278 21.6806C6.40278 23.0229 7.49097 24.1111 8.83333 24.1111C10.1757 24.1111 11.2639 23.0229 11.2639 21.6806C11.2639 21.0003 10.9841 20.3857 10.5337 19.9445H19.6329C19.1826 20.3857 18.9028 21.0003 18.9028 21.6806C18.9028 23.0229 19.991 24.1111 21.3333 24.1111C22.6757 24.1111 23.7639 23.0229 23.7639 21.6806C23.7639 20.7183 23.2045 19.8867 22.3933 19.4929L22.6327 18.4392C22.7809 17.7874 22.2854 17.1667 21.617 17.1667H9.96688L9.68281 15.7778H22.4061C22.8925 15.7778 23.3141 15.4413 23.4219 14.967Z" fill="white"/>
</g>
<defs>
<clipPath id="clip0_1_63">
<rect width="40" height="40" fill="white" transform="translate(0.5 0.5)"/>
</clipPath>
</defs>
</svg>
